<svg id="Layer_1" enable-background="new 0 0 512 512" height="512" viewBox="0 0 512 512" width="512" xmlns="http://www.w3.org/2000/svg"><g><g><path d="m364.78 472.027c-17.857 0-41.581-14.358-69.71-42.397-33.366-33.259-69.385-82.137-101.424-137.63s-56.358-111.126-68.479-156.651c-13.149-49.389-10.325-81.138 8.166-91.814l8 13.856c-8.533 4.927-13.199 26.912-.705 73.841 11.769 44.204 35.518 98.458 66.874 152.767s66.466 102.004 98.864 134.298c34.396 34.286 55.77 41.238 64.3 36.311l8 13.856c-4.121 2.38-8.764 3.563-13.886 3.563z" fill="#faa51e"/></g><g><path d="m133.333 468.465c-18.491-10.676-21.315-42.425-8.166-91.814 12.121-45.525 36.44-101.158 68.479-156.651s68.059-104.371 101.424-137.63c36.198-36.083 65.106-49.511 83.596-38.835l-8 13.856c-8.534-4.927-29.906 2.026-64.3 36.311-32.398 32.294-67.508 79.989-98.864 134.298s-55.105 108.563-66.874 152.767c-12.494 46.93-7.828 68.915.705 73.841z" fill="#faa51e"/></g><g><path d="m501.333 256h-16c0-9.853-16.707-24.886-63.596-37.531-44.166-11.91-103.027-18.469-165.737-18.469s-121.571 6.559-165.737 18.469c-46.889 12.644-63.596 27.678-63.596 37.531h-16c0-21.352 26.083-39.672 75.431-52.979 45.485-12.266 105.824-19.021 169.902-19.021s124.417 6.755 169.903 19.021c49.347 13.307 75.43 31.627 75.43 52.979z" fill="#faa51e"/></g><g><g><circle cx="253.333" cy="256" fill="#46508c" r="176"/></g><g><path d="m253.333 96c42.737 0 82.917 16.643 113.137 46.863s46.863 70.4 46.863 113.137-16.643 82.917-46.863 113.137-70.399 46.863-113.137 46.863-82.917-16.643-113.137-46.863-46.863-70.399-46.863-113.137 16.643-82.917 46.863-113.137 70.4-46.863 113.137-46.863m0-32c-106.039 0-192 85.961-192 192s85.961 192 192 192 192-85.961 192-192-85.961-192-192-192z" fill="#5f78be"/></g></g><g><path d="m253.333 96c1.07 0 4.031 1.168 8.343 5.545 4.563 4.632 11.508 13.769 18.687 30.998 13.327 31.984 20.97 76.982 20.97 123.457s-7.643 91.473-20.97 123.457c-7.179 17.229-14.124 26.366-18.687 30.998-4.312 4.378-7.273 5.545-8.343 5.545s-4.031-1.168-8.343-5.545c-4.563-4.632-11.508-13.769-18.687-30.998-13.327-31.984-20.97-76.982-20.97-123.457s7.643-91.473 20.97-123.457c7.179-17.229 14.124-26.366 18.687-30.998 4.312-4.377 7.274-5.545 8.343-5.545m0-32c-44.183 0-80 85.961-80 192s35.817 192 80 192 80-85.961 80-192-35.817-192-80-192z" fill="#5f78be"/></g><g><path d="m93.333 176h322.667v32h-322.667z" fill="#5f78be"/></g><g><path d="m93.333 304h322.667v32h-322.667z" fill="#5f78be"/></g><g><path d="m256 328c-64.078 0-124.417-6.755-169.903-19.021-49.347-13.307-75.43-31.627-75.43-52.979h16c0 9.853 16.707 24.886 63.596 37.531 44.166 11.91 103.027 18.469 165.737 18.469s121.571-6.559 165.737-18.469c46.889-12.644 63.596-27.678 63.596-37.531h16c0 21.352-26.083 39.672-75.431 52.979-45.485 12.266-105.824 19.021-169.902 19.021z" fill="#faa51e"/></g><g><path d="m378.667 468.465-8-13.856c8.533-4.927 13.199-26.912.705-73.841-11.769-44.204-35.518-98.458-66.874-152.767s-66.466-102.004-98.864-134.298c-34.396-34.286-55.766-41.237-64.3-36.311l-8-13.856c18.491-10.676 47.398 2.753 83.596 38.835 33.366 33.259 69.385 82.137 101.424 137.63s56.358 111.126 68.479 156.651c13.149 49.388 10.325 81.137-8.166 91.813z" fill="#faa51e"/></g><g><path d="m147.22 472.027c-5.124 0-9.764-1.182-13.886-3.562l8-13.856c8.533 4.926 29.906-2.026 64.3-36.311 32.398-32.294 67.508-79.989 98.864-134.298s55.105-108.563 66.874-152.767c12.494-46.93 7.828-68.915-.705-73.841l8-13.856c18.491 10.676 21.315 42.425 8.166 91.814-12.121 45.525-36.44 101.158-68.479 156.651s-68.059 104.371-101.424 137.63c-28.127 28.036-51.853 42.395-69.71 42.396z" fill="#faa51e"/></g><g><g><g><circle cx="317.333" cy="288" fill="#faa51e" r="88"/></g><g><path d="m317.333 208c44.112 0 80 35.888 80 80s-35.888 80-80 80-80-35.888-80-80 35.888-80 80-80m0-16c-53.019 0-96 42.981-96 96s42.981 96 96 96 96-42.981 96-96-42.98-96-96-96z" fill="#f06423"/></g></g><path d="m341.333 280c4.418 0 8-3.582 8-8v-5.404c0-13.789-10.549-25.158-24-26.468v-8.128c0-4.418-3.582-8-8-8s-8 3.582-8 8v8.128c-13.451 1.309-24 12.679-24 26.468 0 11.466 7.308 21.605 18.186 25.231l22.569 7.523c4.334 1.445 7.246 5.485 7.246 10.053 0 5.843-4.753 10.596-10.597 10.596h-10.807c-5.843 0-10.596-4.753-10.596-10.596v-5.403c0-4.418-3.582-8-8-8s-8 3.582-8 8v5.404c0 13.789 10.549 25.159 24 26.468v8.128c0 4.418 3.582 8 8 8s8-3.582 8-8v-8.128c13.451-1.31 24-12.679 24-26.468 0-11.466-7.309-21.606-18.186-25.231l-22.569-7.523c-4.333-1.445-7.245-5.485-7.245-10.053 0-5.843 4.753-10.596 10.596-10.596h10.807c5.843 0 10.597 4.753 10.597 10.596v5.403c-.001 4.418 3.581 8 7.999 8z" fill="#f06423"/></g></g></svg>